02/20/2024, 13:58:49.909400   Start web GUI..
02/20/2024, 13:58:49.940701   {'param': '#this is comment...\n#ffmpeg -f lavfi -re -i testsrc2=size=800x720 -c:v h264 -b:v 2000k -g 5 -f flv -an rtmp://127.0.0.1/live/enc4\n# This is comment 2\nffmpeg -i rtmp://210.216.76.120/live/sbsonair -c copy -f flv rtmp://127.0.0.1/live/enc1', 'timetb': '03:00\n05:00', 'title': 'ENCODER 111111'}
02/20/2024, 13:58:49.940701   {'param': '#this is comment...\nffmpeg -f lavfi -re -i testsrc=size=1280x720 -pix_fmt yuv420p -g 5 -c:v h264 -b:v 2000k -f flv rtmp://127.0.0.1/live/enc2\n# This is comment 2', 'timetb': '03:00\n12:29', 'title': 'This is encoder2'}
02/20/2024, 13:58:49.940701   {'param': '#this is comment...\nffmpeg -f lavfi -re -i "testsrc2=size=800x720" -pix_fmt yuv420p -c:v h264 -g 5 -f flv -an rtmp://127.0.0.1/live/enc3\n# This is comment 2', 'timetb': '03:00\n12:29', 'title': 'This is encoder3'}
02/20/2024, 13:58:49.940701   {'param': '#this is comment...\nffmpeg -f lavfi -re -i testsrc=size=1280x720 -pix_fmt yuv420p -c:v h264 -b:v 2000k -g 5 -f flv -an rtmp://127.0.0.1/live/enc4\n# This is comment 2', 'timetb': '03:00\n05:00', 'title': 'This is encoder4'}
02/20/2024, 13:58:49.940701   Read preset from file...
{'preset1': 'ffmpeg -f lavfi -re -i "testsrc2=size=800x720" -c:v h264 -b:v 2000k -g 5 -f flv -an rtmp://127.0.0.1/live/enc4\n', 'preset2': 'ffmpeg -i lavfi 2', 'preset3': 'ffmpeg.exe -y -f dshow -r 29.97 -video_size 1920x1080 -rtbufsize 700M -framerate 29.97 -top 1 -pixel_format uyvy422 -sample_rate 48000 -sample_size 16 -channels 8 -i "video=Decklink Video Capture:audio=Decklink Audio Capture"  -timecode %time% -pix_fmt yuv422p -c:v mpeg2video -profile:v 0 -level:v 2 -b:v 50000k -maxrate 50000k -minrate 50000k -bufsize 20000k -flags +ildct+ilme -top 1 -g 15 -bf 2 -color_primaries 1 -color_trc 1 -colorspace 1 -filter_complex "[0:0]setfield=tff;channelsplit=channel_layout=8" -acodec pcm_s16le "%mytimestamp%_XDCAM_50Mbps_8CH.mxf"\n\n\nffmpeg.exe -y -f dshow -r 29.97 -video_size 1920x1080 -rtbufsize 700M -framerate 29.97 -top 1 -pixel_format uyvy422 -sample_rate 48000 -sample_size 16 -channels 2 -i "video=Decklink Video Capture:audio=Decklink Audio Capture"  -timecode %time% -pix_fmt yuv422p -map [v2] -c:v mpeg2video -profile:v 0 -level:v 2 -b:v 11000k -bf 2 -g 15 -filter_complex "[0:0]yadif=0:-1:0[v1];[v1]scale=1280:720[v2];channelsplit=channel_layout=2[MA:0][MA:1];[MA:0][MA:1]amerge[a1]" -map [a1] -acodec mp3 -ac 2 "%mytimestamp%_MPEG2_2_channel.ts"', 'preset4': '\nffmpeg.exe -y -f dshow -video_size 1920x1080 -rtbufsize 700M -framerate 29.97 -top 1 -pixel_format uyvy422 -use_wallclock_as_timestamps 1 -sample_rate 48000 -sample_size 16 -channels 2 -i "video=Decklink Video Capture:audio=Decklink Audio Capture"  -timecode %time% -pix_fmt yuv422p -map [v2] -c:v libx264 -preset fast -crf 28 -filter_complex "[0:0]yadif=0:-1:0[v1];[v1]scale=1280:720[v2];channelsplit=channel_layout=2[MA:0][MA:1];[MA:0][MA:1]amerge[a1]" -map [a1] -acodec mp3 -ac 2 -f mpegts "%mytimestamp%_x264_stereo.ts"', 'preset5': 'ffmpeg2016.exe -f dshow -r ntsc -video_size 1920x1080 -rtbufsize 300M -framerate ntsc -top 1 -pixel_format uyvy422 -sample_rate 48000 -sample_size 16 -channels 2 -i "video=Decklink Video Capture:audio=Decklink Audio Capture" -pix_fmt yuv420p -c:v libx264 -crf 25 -preset:v veryfast -tune zerolatency -filter_complex "[0:0]yadif=0:-1:0[v1];[v1]scale=1280:720;channelsplit=channel_layout=2" -c:a aac -ab 128k -ac 2 -f flv rtmp://10.10.108.221:1935/sbsonair', 'preset6': 'ffmpeg -i test6', 'preset7': '#this is comment...\nffmpeg -f lavfi -re -i testsrc=size=1280x720 -pix_fmt yuv420p -g 5 -c:v h264 -b:v 2000k -f flv rtmp://127.0.0.1/live/enc1\n# This is comment 2\n#ffmpeg -f lavfi -re -i testsrc=size=1280x720 -pix_fmt yuv420p -g 5 -c:v h264 -b:v 2000k -f flv rtmp://127.0.0.1/live/enc1\n#ffmpeg -f lavfi -re -i testsrc=size=1280x720 -pix_fmt yuv420p -g 5 -c:v h264 -b:v 2000k -f flv rtmp://127.0.0.1/live/enc1\n#ffmpeg -f lavfi -re -i testsrc=size=1280x720 -pix_fmt yuv420p -g 5 -c:v h264 -b:v 2000k -f flv rtmp://127.0.0.1/live/enc1\n', 'preset8': 'ffmpeg -i test8', 'preset9': '#this is comment...\nffmpeg -f lavfi -re -i testsrc=size=800x720 -c:v mpeg2video -f mpegts -an http://127.0.0.1:8000/live1\n# This is comment 2', 'preset10': 'ffmpeg -f dshow -list_devices 1 -i dummy -f null'}
02/20/2024, 13:58:55.403337   decode protcol ->  {'cmd': 'enc1get', 'data': {}}
02/20/2024, 13:58:55.409398   decode protcol ->  {'cmd': 'enc2get', 'data': {}}
02/20/2024, 13:58:55.409398   decode protcol ->  {'cmd': 'enc3get', 'data': {}}
02/20/2024, 13:58:55.409398   decode protcol ->  {'cmd': 'enc4get', 'data': {}}
02/20/2024, 13:58:59.277250   decode protcol ->  {'cmd': 'enc1start', 'data': {}}
02/20/2024, 13:58:59.279369   [enc1 run with param] ==> 
ffmpeg -i rtmp://210.216.76.120/live/sbsonair -c copy -f flv rtmp://127.0.0.1/live/enc1
02/20/2024, 13:58:59.794228   decode protcol ->  {'cmd': 'enc2start', 'data': {}}
02/20/2024, 13:58:59.800166   [enc2 run with param] ==> 
ffmpeg -f lavfi -re -i testsrc=size=1280x720 -pix_fmt yuv420p -g 5 -c:v h264 -b:v 2000k -f flv rtmp://127.0.0.1/live/enc2
02/20/2024, 13:58:59.828675   [enc2stat] ## Duration detected....  N/A, start:
02/20/2024, 13:59:00.272820   decode protcol ->  {'cmd': 'enc3start', 'data': {}}
02/20/2024, 13:59:00.272820   [enc3 run with param] ==> 
ffmpeg -f lavfi -re -i "testsrc2=size=800x720" -pix_fmt yuv420p -c:v h264 -g 5 -f flv -an rtmp://127.0.0.1/live/enc3
02/20/2024, 13:59:00.298281   [enc3stat] ## Duration detected....  N/A, start:
02/20/2024, 13:59:00.747919   decode protcol ->  {'cmd': 'enc4start', 'data': {}}
02/20/2024, 13:59:00.749792   [enc4 run with param] ==> 
ffmpeg -f lavfi -re -i testsrc=size=1280x720 -pix_fmt yuv420p -c:v h264 -b:v 2000k -g 5 -f flv -an rtmp://127.0.0.1/live/enc4
02/20/2024, 13:59:00.763798   [enc4stat] ## Duration detected....  N/A, start:
02/20/2024, 13:59:00.829915   [enc1stat] ## Duration detected....  00:00:00.00
02/20/2024, 13:59:04.287152   [enc1stat] Watch dog pid is 10636/frame=  117 fps= 45 q=-1.0 size=    1808kB time=00:00:03.90 bitrate=3790.1kbits/s speed=1.52x
02/20/2024, 13:59:04.805558   [enc2stat] Watch dog pid is 2724/frame=   86 fps= 21 q=8.0 size=     278kB time=00:00:03.36 bitrate= 677.6kbits/s speed=0.81x
02/20/2024, 13:59:05.280265   [enc3stat] Watch dog pid is 10376/frame=   86 fps= 21 q=28.0 size=     935kB time=00:00:03.36 bitrate=2280.6kbits/s speed=0.811x
02/20/2024, 13:59:05.754785   [enc4stat] Watch dog pid is 12952/frame=   86 fps= 21 q=8.0 size=     278kB time=00:00:03.36 bitrate= 677.6kbits/s speed=0.81x
02/20/2024, 13:59:07.288599   [enc1stat] Watch dog pid is 10636/frame=  213 fps= 37 q=-1.0 size=    3049kB time=00:00:07.08 bitrate=3526.3kbits/s speed=1.24x
02/20/2024, 13:59:07.808129   [enc2stat] Watch dog pid is 2724/frame=  164 fps= 23 q=4.0 size=     661kB time=00:00:06.48 bitrate= 835.6kbits/s speed=0.892x
02/20/2024, 13:59:08.282731   [enc3stat] Watch dog pid is 10376/frame=  164 fps= 23 q=25.0 size=    1803kB time=00:00:06.48 bitrate=2279.2kbits/s speed=0.891x
02/20/2024, 13:59:08.755938   [enc4stat] Watch dog pid is 12952/frame=  164 fps= 23 q=4.0 size=     661kB time=00:00:06.48 bitrate= 835.6kbits/s speed=0.892x
02/20/2024, 13:59:10.289582   [enc1stat] Watch dog pid is 10636/frame=  303 fps= 34 q=-1.0 size=    4195kB time=00:00:10.13 bitrate=3391.3kbits/s speed=1.15x
02/20/2024, 13:59:10.809935   [enc2stat] Watch dog pid is 2724/frame=  242 fps= 23 q=4.0 size=    1079kB time=00:00:09.60 bitrate= 920.8kbits/s speed=0.925x
02/20/2024, 13:59:11.285816   [enc3stat] Watch dog pid is 10376/frame=  242 fps= 23 q=28.0 size=    2669kB time=00:00:09.60 bitrate=2277.6kbits/s speed=0.924x
02/20/2024, 13:59:11.757947   [enc4stat] Watch dog pid is 12952/frame=  242 fps= 23 q=4.0 size=    1079kB time=00:00:09.60 bitrate= 920.8kbits/s speed=0.925x
02/20/2024, 13:59:13.292292   [enc1stat] Watch dog pid is 10636/frame=  382 fps= 33 q=-1.0 size=    5684kB time=00:00:12.73 bitrate=3656.0kbits/s speed=1.12x
02/20/2024, 13:59:13.811736   [enc2stat] Watch dog pid is 2724/frame=  307 fps= 24 q=4.0 size=    1440kB time=00:00:12.20 bitrate= 967.3kbits/s speed=0.94x
02/20/2024, 13:59:14.287997   [enc3stat] Watch dog pid is 10376/frame=  307 fps= 24 q=28.0 size=    3399kB time=00:00:12.20 bitrate=2282.2kbits/s speed=0.939x
02/20/2024, 13:59:14.759367   [enc4stat] Watch dog pid is 12952/frame=  307 fps= 24 q=4.0 size=    1440kB time=00:00:12.20 bitrate= 967.3kbits/s speed=0.94x
02/20/2024, 13:59:16.293581   [enc1stat] Watch dog pid is 10636/frame=  476 fps= 33 q=-1.0 size=    7047kB time=00:00:15.87 bitrate=3636.9kbits/s speed=1.09x
02/20/2024, 13:59:16.813568   [enc2stat] Watch dog pid is 2724/frame=  385 fps= 24 q=2.0 size=    1871kB time=00:00:15.32 bitrate=1000.6kbits/s speed=0.951x
02/20/2024, 13:59:17.290532   [enc3stat] Watch dog pid is 10376/frame=  385 fps= 24 q=28.0 size=    4260kB time=00:00:15.32 bitrate=2278.2kbits/s speed=0.951x
02/20/2024, 13:59:17.761104   [enc4stat] Watch dog pid is 12952/frame=  385 fps= 24 q=2.0 size=    1871kB time=00:00:15.32 bitrate=1000.6kbits/s speed=0.951x
02/20/2024, 13:59:19.295864   [enc1stat] Watch dog pid is 10636/frame=  568 fps= 32 q=-1.0 size=    8447kB time=00:00:18.95 bitrate=3650.3kbits/s speed=1.08x
02/20/2024, 13:59:19.814671   [enc2stat] Watch dog pid is 2724/frame=  463 fps= 24 q=1.0 size=    2337kB time=00:00:18.44 bitrate=1038.3kbits/s speed=0.959x
02/20/2024, 13:59:20.292562   [enc3stat] Watch dog pid is 10376/frame=  463 fps= 24 q=28.0 size=    5134kB time=00:00:18.44 bitrate=2280.6kbits/s speed=0.959x
02/20/2024, 13:59:20.763170   [enc4stat] Watch dog pid is 12952/frame=  463 fps= 24 q=1.0 size=    2337kB time=00:00:18.44 bitrate=1038.3kbits/s speed=0.959x
02/20/2024, 13:59:22.298744   [enc1stat] Watch dog pid is 10636/frame=  662 fps= 32 q=-1.0 size=    9864kB time=00:00:22.05 bitrate=3663.1kbits/s speed=1.07x
02/20/2024, 13:59:22.817027   [enc2stat] Watch dog pid is 2724/frame=  541 fps= 24 q=0.0 size=    2789kB time=00:00:21.56 bitrate=1059.5kbits/s speed=0.965x
02/20/2024, 13:59:23.294022   [enc3stat] Watch dog pid is 10376/frame=  541 fps= 24 q=28.0 size=    5991kB time=00:00:21.56 bitrate=2276.5kbits/s speed=0.965x
02/20/2024, 13:59:23.765353   [enc4stat] Watch dog pid is 12952/frame=  541 fps= 24 q=0.0 size=    2789kB time=00:00:21.56 bitrate=1059.5kbits/s speed=0.965x
02/20/2024, 13:59:25.300775   [enc1stat] Watch dog pid is 10636/frame=  754 fps= 32 q=-1.0 size=   11236kB time=00:00:25.13 bitrate=3662.7kbits/s speed=1.06x
02/20/2024, 13:59:25.819833   [enc2stat] Watch dog pid is 2724/frame=  606 fps= 24 q=0.0 size=    3182kB time=00:00:24.16 bitrate=1078.8kbits/s speed=0.968x
02/20/2024, 13:59:26.296775   [enc3stat] Watch dog pid is 10376/frame=  606 fps= 24 q=28.0 size=    6721kB time=00:00:24.16 bitrate=2279.0kbits/s speed=0.969x
02/20/2024, 13:59:26.766712   [enc4stat] Watch dog pid is 12952/frame=  606 fps= 24 q=0.0 size=    3182kB time=00:00:24.16 bitrate=1078.8kbits/s speed=0.968x
02/20/2024, 13:59:28.303929   [enc1stat] Watch dog pid is 10636/frame=  846 fps= 32 q=-1.0 size=   12592kB time=00:00:28.20 bitrate=3657.5kbits/s speed=1.05x
02/20/2024, 13:59:28.821364   [enc2stat] Watch dog pid is 2724/frame=  684 fps= 24 q=0.0 size=    3654kB time=00:00:27.28 bitrate=1097.3kbits/s speed=0.972x
02/20/2024, 13:59:29.298830   [enc3stat] Watch dog pid is 10376/frame=  684 fps= 24 q=25.0 size=    7597kB time=00:00:27.28 bitrate=2281.3kbits/s speed=0.972x
02/20/2024, 13:59:29.771010   [enc4stat] Watch dog pid is 12952/frame=  684 fps= 24 q=0.0 size=    3654kB time=00:00:27.28 bitrate=1097.3kbits/s speed=0.972x
02/20/2024, 13:59:30.388824   decode protcol ->  {'cmd': 'halt', 'data': {}}
02/20/2024, 13:59:30.389823   [enc1]Stop encoder..
02/20/2024, 13:59:30.389823   [enc2]Stop encoder..
02/20/2024, 13:59:30.390905   [enc3]Stop encoder..
02/20/2024, 13:59:30.391817   [enc4]Stop encoder..
02/20/2024, 13:59:30.395935   [enc1stat] ffmpeg process exited with error code 1
02/20/2024, 13:59:30.396933   [enc1 Finish encoder
02/20/2024, 13:59:30.396933   [enc1] Finish encoder. escape from running loop
02/20/2024, 13:59:30.430285   [enc3stat] ffmpeg process exited with error code 1
02/20/2024, 13:59:30.431282   [enc3 Finish encoder
02/20/2024, 13:59:30.432279   [enc3] Finish encoder. escape from running loop
02/20/2024, 13:59:30.435460   [enc2stat] ffmpeg process exited with error code 1
02/20/2024, 13:59:30.436458   [enc2 Finish encoder
02/20/2024, 13:59:30.436458   [enc4stat] ffmpeg process exited with error code 1
02/20/2024, 13:59:30.436458   [enc2] Finish encoder. escape from running loop
02/20/2024, 13:59:30.437460   [enc4 Finish encoder
02/20/2024, 13:59:30.437460   [enc4] Finish encoder. escape from running loop
